<svg width="26" height="23" viewBox="0 0 26 23" fill="none" xmlns="http://www.w3.org/2000/svg">
<g filter="url(#filter0_d_1_149)">
<path d="M7.16667 1.33331H10.5L13 3.83331H18.8333C19.2754 3.83331 19.6993 4.00891 20.0118 4.32147C20.3244 4.63403 20.5 5.05795 20.5 5.49998V12.1666C20.5 12.6087 20.3244 13.0326 20.0118 13.3452C19.6993 13.6577 19.2754 13.8333 18.8333 13.8333H7.16667C6.72464 13.8333 6.30072 13.6577 5.98816 13.3452C5.67559 13.0326 5.5 12.6087 5.5 12.1666V2.99998C5.5 2.55795 5.67559 2.13403 5.98816 1.82147C6.30072 1.50891 6.72464 1.33331 7.16667 1.33331Z" stroke="#5F6980" stroke-width="1.25" stroke-linecap="round" stroke-linejoin="round" shape-rendering="crispEdges"/>
</g>
<defs>
<filter id="filter0_d_1_149" x="0.875" y="0.708313" width="24.25" height="21.75" filterUnits="userSpaceOnUse" color-interpolation-filters="sRGB">
<feFlood flood-opacity="0" result="BackgroundImageFix"/>
<feColorMatrix in="SourceAlpha" type="matrix" values="0 0 0 0 0 0 0 0 0 0 0 0 0 0 0 0 0 0 127 0" result="hardAlpha"/>
<feOffset dy="4"/>
<feGaussianBlur stdDeviation="2"/>
<feComposite in2="hardAlpha" operator="out"/>
<feColorMatrix type="matrix" values="0 0 0 0 0 0 0 0 0 0 0 0 0 0 0 0 0 0 0.25 0"/>
<feBlend mode="normal" in2="BackgroundImageFix" result="effect1_dropShadow_1_149"/>
<feBlend mode="normal" in="SourceGraphic" in2="effect1_dropShadow_1_149" result="shape"/>
</filter>
</defs>
</svg>
